<svg xmlns="http://www.w3.org/2000/svg" viewBox="0 0 640 480" role="img" aria-labelledby="title">
  <title id="title">Мережеве обладнання</title>
  <defs><linearGradient id="bg" x2="1" y2="1"><stop stop-color="#f8fafc"/><stop offset="1" stop-color="#dce9f5"/></linearGradient><filter id="s"><feDropShadow dx="0" dy="12" stdDeviation="16" flood-opacity=".17"/></filter></defs>
  <rect width="640" height="480" rx="36" fill="url(#bg)"/>
  <g filter="url(#s)"><rect x="106" y="142" width="428" height="196" rx="24" fill="#26364e"/><rect x="130" y="168" width="380" height="118" rx="12" fill="#fff"/></g>
  <g fill="#8a99ad"><rect x="156" y="194" width="42" height="38" rx="5"/><rect x="210" y="194" width="42" height="38" rx="5"/><rect x="264" y="194" width="42" height="38" rx="5"/><rect x="318" y="194" width="42" height="38" rx="5"/><rect x="372" y="194" width="42" height="38" rx="5"/><rect x="426" y="194" width="42" height="38" rx="5"/></g>
  <g fill="#82b52b"><circle cx="174" cy="310" r="6"/><circle cx="194" cy="310" r="6"/><circle cx="214" cy="310" r="6"/></g><path d="M442 310h42" stroke="#f0a019" stroke-width="10" stroke-linecap="round"/>
  <path d="M318 142V80M318 80c-42 0-74 18-92 42M318 80c42 0 74 18 92 42" fill="none" stroke="#2563a9" stroke-width="9" stroke-linecap="round"/>
</svg>
